<?xml version="1.0" encoding="utf-8"?>
<!-- Generator: Adobe Illustrator 20.1.0, SVG Export Plug-In . SVG Version: 6.00 Build 0)  -->
<!DOCTYPE svg PUBLIC "-//W3C//DTD SVG 1.1//EN" "http://www.w3.org/Graphics/SVG/1.1/DTD/svg11.dtd">
<svg version="1.1" id="Layer_2" xmlns="http://www.w3.org/2000/svg" xmlns:xlink="http://www.w3.org/1999/xlink" x="0px" y="0px"
	 viewBox="0 0 360 360" enable-background="new 0 0 360 360" xml:space="preserve">
<line fill="none" stroke="#000000" stroke-width="2" stroke-linecap="round" stroke-linejoin="round" stroke-miterlimit="10" x1="180" y1="36" x2="54" y2="252"/>
<line fill="none" stroke="#0D0D0D" stroke-width="2" stroke-linecap="round" stroke-linejoin="round" stroke-miterlimit="10" x1="54" y1="108" x2="180" y2="324"/>
<line fill="none" stroke="#00ABD3" stroke-width="2" stroke-linecap="round" stroke-linejoin="round" stroke-miterlimit="10" x1="54" y1="252" x2="180" y2="180"/>
<line fill="none" stroke="#000000" stroke-width="2" stroke-linecap="round" stroke-linejoin="round" stroke-miterlimit="10" x1="180" y1="36" x2="243" y2="216"/>
<line fill="none" stroke="#016F87" stroke-width="2" stroke-linecap="round" stroke-linejoin="round" stroke-miterlimit="10" x1="243" y1="144" x2="54" y2="108"/>
<line fill="none" stroke="#000000" stroke-width="2" stroke-linecap="round" stroke-linejoin="round" stroke-miterlimit="10" x1="180" y1="324" x2="306" y2="108"/>
<line fill="none" stroke="#5E5F5F" stroke-width="2" stroke-linecap="round" stroke-linejoin="round" stroke-miterlimit="10" x1="54" y1="252" x2="306" y2="252"/>
<line fill="none" stroke="#000000" stroke-width="2" stroke-linecap="round" stroke-linejoin="round" stroke-miterlimit="10" x1="180" y1="180" x2="243" y2="216"/>
<line fill="none" stroke="#000000" stroke-width="2" stroke-linecap="round" stroke-linejoin="round" stroke-miterlimit="10" x1="306" y1="108" x2="180" y2="180"/>
<line fill="none" stroke="#000000" stroke-width="2" stroke-linecap="round" stroke-linejoin="round" stroke-miterlimit="10" x1="54" y1="108" x2="180" y2="108"/>
<line fill="none" stroke="#000000" stroke-width="2" stroke-linecap="round" stroke-linejoin="round" stroke-miterlimit="10" x1="180" y1="180" x2="180" y2="252"/>
<line fill="none" stroke="#000000" stroke-width="2" stroke-linecap="round" stroke-linejoin="round" stroke-miterlimit="10" x1="180" y1="324" x2="180" y2="252"/>
<line fill="none" stroke="#000000" stroke-width="2" stroke-linecap="round" stroke-linejoin="round" stroke-miterlimit="10" x1="306" y1="252" x2="117" y2="144"/>
<line fill="none" stroke="#8E8E8E" stroke-width="2" stroke-linecap="round" stroke-linejoin="round" stroke-miterlimit="10" x1="180" y1="108" x2="306" y2="252"/>
<line fill="none" stroke="#000000" stroke-width="2" stroke-linecap="round" stroke-linejoin="round" stroke-miterlimit="10" x1="117" y1="144" x2="306" y2="108"/>
<line fill="none" stroke="#000000" stroke-width="2" stroke-linecap="round" stroke-linejoin="round" stroke-miterlimit="10" x1="180" y1="36" x2="306" y2="108"/>
<g>
	<path fill="#515251" d="M180,0.8c24.2,0,47.7,4.7,69.8,14.1c21.3,9,40.5,22,57,38.4c16.5,16.5,29.4,35.6,38.4,57
		c9.3,22.1,14.1,45.6,14.1,69.8s-4.7,47.7-14.1,69.8c-9,21.3-22,40.5-38.4,57s-35.6,29.4-57,38.4c-22.1,9.3-45.6,14.1-69.8,14.1
		s-47.7-4.7-69.8-14.1c-21.3-9-40.5-22-57-38.4c-16.5-16.5-29.4-35.6-38.4-57C5.5,227.7,0.8,204.2,0.8,180s4.7-47.7,14.1-69.8
		c9-21.3,22-40.5,38.4-57c16.5-16.5,35.6-29.4,57-38.4C132.3,5.5,155.8,0.8,180,0.8 M180,0C80.6,0,0,80.6,0,180s80.6,180,180,180
		s180-80.6,180-180S279.4,0,180,0L180,0z"/>
</g>
</svg>
