<?xml version="1.0" encoding="utf-8"?>
<!-- Generator: Adobe Illustrator 21.0.0, SVG Export Plug-In . SVG Version: 6.00 Build 0)  -->
<!DOCTYPE svg PUBLIC "-//W3C//DTD SVG 1.1//EN" "http://www.w3.org/Graphics/SVG/1.1/DTD/svg11.dtd">
<svg version="1.1" id="close" xmlns="http://www.w3.org/2000/svg" xmlns:xlink="http://www.w3.org/1999/xlink" x="0px" y="0px"
	 viewBox="0 0 216 216" style="enable-background:new 0 0 216 216;" xml:space="preserve">
<style type="text/css">
	.st0{fill:#FF0F62;}
</style>
<path class="st0" d="M108,1.9C49.4,1.9,1.9,49.4,1.9,108S49.4,214.1,108,214.1S214.1,166.6,214.1,108S166.6,1.9,108,1.9z
	 M150.6,139.2c3.1,3.1,3.1,8.2,0,11.3c-1.6,1.6-3.6,2.3-5.7,2.3s-4.1-0.8-5.7-2.3L108,119.3l-31.2,31.2c-1.6,1.6-3.6,2.3-5.7,2.3
	s-4.1-0.8-5.7-2.3c-3.1-3.1-3.1-8.2,0-11.3L96.7,108L65.4,76.8c-3.1-3.1-3.1-8.2,0-11.3c3.1-3.1,8.2-3.1,11.3,0L108,96.7l31.2-31.2
	c3.1-3.1,8.2-3.1,11.3,0c3.1,3.1,3.1,8.2,0,11.3L119.3,108L150.6,139.2z"/>
</svg>
